<svg width="170" height="56" viewBox="0 0 170 56" fill="none" xmlns="http://www.w3.org/2000/svg">
<path d="M10 18C10 16.8954 10.8954 16 12 16H36C37.1046 16 38 16.8954 38 18C38 19.1046 37.1046 20 36 20H12C10.8954 20 10 19.1046 10 18Z" fill="white"/>
<path d="M10 28C10 26.8954 10.8954 26 12 26H36C37.1046 26 38 26.8954 38 28C38 29.1046 37.1046 30 36 30H12C10.8954 30 10 29.1046 10 28Z" fill="white"/>
<path d="M10 38C10 36.8954 10.8954 36 12 36H36C37.1046 36 38 36.8954 38 38C38 39.1046 37.1046 40 36 40H12C10.8954 40 10 39.1046 10 38Z" fill="white"/>
<rect x="0.5" y="4.5" width="47" height="47" rx="7.5" stroke="white" stroke-opacity="0.45"/>
<path d="M76.6875 12.8047H72.2031V25H68.9082V12.8047H64.4102V10.3027H76.6875V12.8047ZM85.7788 25.2598C84.6485 25.2598 83.6186 25.082 82.6889 24.7266C81.7592 24.362 80.9617 23.8516 80.2963 23.1953C79.6401 22.5391 79.1297 21.7552 78.7651 20.8438C78.4005 19.9323 78.2182 18.9297 78.2182 17.8359C78.2182 16.6966 78.3959 15.653 78.7514 14.7051C79.116 13.748 79.6355 12.9277 80.31 12.2441C80.9845 11.5514 81.8048 11.0137 82.7709 10.6309C83.7371 10.248 84.8308 10.0566 86.0522 10.0566C87.1824 10.0566 88.2032 10.2435 89.1147 10.6172C90.0261 10.9909 90.8054 11.5104 91.4526 12.1758C92.0997 12.8411 92.5965 13.6296 92.9428 14.541C93.2983 15.4434 93.476 16.4323 93.476 17.5078C93.476 18.6927 93.2892 19.7637 92.9155 20.7207C92.5418 21.6777 92.0131 22.4935 91.3295 23.168C90.6551 23.8333 89.8439 24.3483 88.8959 24.7129C87.9571 25.0775 86.9181 25.2598 85.7788 25.2598ZM85.9291 12.5586C85.2638 12.5586 84.6668 12.6816 84.1381 12.9277C83.6095 13.1738 83.1629 13.5202 82.7983 13.9668C82.4337 14.4134 82.1511 14.9512 81.9506 15.5801C81.7592 16.209 81.6635 16.9062 81.6635 17.6719C81.6635 18.4466 81.7547 19.1484 81.937 19.7773C82.1284 20.3971 82.4018 20.9303 82.7573 21.377C83.1127 21.8145 83.5457 22.1562 84.0561 22.4023C84.5756 22.6393 85.159 22.7578 85.8061 22.7578C86.4897 22.7578 87.0958 22.6439 87.6245 22.416C88.1531 22.1882 88.5952 21.86 88.9506 21.4316C89.3061 20.9941 89.575 20.4655 89.7573 19.8457C89.9396 19.2168 90.0307 18.5059 90.0307 17.7129C90.0307 16.9017 89.9441 16.1771 89.7709 15.5391C89.5978 14.901 89.338 14.3633 88.9916 13.9258C88.6544 13.4792 88.226 13.1419 87.7065 12.9141C87.1961 12.6771 86.6036 12.5586 85.9291 12.5586ZM108.638 20.6934C108.638 21.3496 108.501 21.9421 108.227 22.4707C107.954 22.9993 107.571 23.4551 107.079 23.8379C106.587 24.2116 105.994 24.4987 105.302 24.6992C104.609 24.8997 103.848 25 103.018 25H97.3856V10.3027H102.8C104.486 10.3027 105.757 10.6035 106.614 11.2051C107.48 11.8066 107.913 12.6406 107.913 13.707C107.913 14.5273 107.653 15.2337 107.134 15.8262C106.623 16.4186 105.885 16.847 104.919 17.1113V17.1523C105.52 17.2161 106.054 17.3529 106.518 17.5625C106.983 17.763 107.371 18.0182 107.681 18.3281C108 18.638 108.237 18.998 108.391 19.4082C108.556 19.8092 108.638 20.2376 108.638 20.6934ZM104.468 14.1855C104.468 13.5566 104.267 13.1328 103.866 12.9141C103.465 12.6862 102.836 12.5723 101.979 12.5723H100.681V16.2773H101.938C102.759 16.2773 103.383 16.1042 103.811 15.7578C104.249 15.4115 104.468 14.8874 104.468 14.1855ZM105.206 20.666C105.206 19.9368 104.96 19.4036 104.468 19.0664C103.985 18.7292 103.246 18.5605 102.253 18.5605H100.681V22.7305H102.444C103.337 22.7305 104.021 22.571 104.495 22.252C104.969 21.9329 105.206 21.4043 105.206 20.666ZM125.303 25H121.748L120.518 21.582H114.981L113.805 25H110.25L115.951 10.3027H119.643L125.303 25ZM119.766 19.2168L118.139 14.5547C118.057 14.3177 117.979 14.0625 117.907 13.7891C117.834 13.5065 117.788 13.2559 117.77 13.0371H117.701C117.674 13.2467 117.624 13.4883 117.551 13.7617C117.487 14.026 117.41 14.2995 117.319 14.582L115.774 19.2168H119.766ZM139.193 14.8691C139.193 15.5983 139.047 16.2682 138.756 16.8789C138.473 17.4896 138.072 18.0137 137.553 18.4512C137.033 18.8887 136.404 19.2305 135.666 19.4766C134.928 19.7135 134.107 19.832 133.205 19.832H131.496V25H128.201V10.3027H133.328C135.251 10.3027 136.709 10.6947 137.703 11.4785C138.696 12.2533 139.193 13.3835 139.193 14.8691ZM135.748 14.9648C135.748 14.1445 135.511 13.5521 135.037 13.1875C134.572 12.8138 133.861 12.627 132.904 12.627H131.496V17.5215H132.795C133.761 17.5215 134.495 17.3118 134.996 16.8926C135.497 16.4733 135.748 15.8307 135.748 14.9648ZM142.98 25V10.3027H146.261V16.168H148.872C149.711 16.168 150.463 16.2682 151.128 16.4688C151.793 16.6693 152.354 16.9564 152.81 17.3301C153.275 17.6947 153.626 18.1367 153.863 18.6562C154.109 19.1758 154.232 19.7591 154.232 20.4062C154.232 21.1081 154.099 21.7415 153.835 22.3066C153.58 22.8717 153.211 23.3548 152.728 23.7559C152.245 24.1569 151.657 24.4668 150.964 24.6855C150.271 24.8952 149.492 25 148.626 25H142.98ZM146.261 18.4238V22.7441H148.175C149.141 22.7441 149.875 22.5755 150.376 22.2383C150.877 21.901 151.128 21.3451 151.128 20.5703C151.128 19.8047 150.887 19.2578 150.404 18.9297C149.92 18.5924 149.196 18.4238 148.23 18.4238H146.261ZM159.509 25H156.228V10.3027H159.509V25ZM66.2695 34.3027H69.3184V42.6152C69.3184 43.1257 69.3092 43.5632 69.291 43.9277C69.2728 44.2832 69.25 44.5566 69.2227 44.748H69.2637C69.3548 44.5931 69.4642 44.4108 69.5918 44.2012C69.7285 43.9915 69.9199 43.7181 70.166 43.3809L76.7012 34.3027H80.2148V49H77.166V40.5371C77.166 40.0176 77.1706 39.571 77.1797 39.1973C77.1979 38.8145 77.2207 38.5182 77.248 38.3086H77.1934C77.1204 38.4635 77.002 38.6732 76.8379 38.9375C76.6738 39.2018 76.4733 39.4935 76.2363 39.8125L69.5781 49H66.2695V34.3027ZM104.003 36.8047H99.5184V49H96.2235V36.8047H91.7255V34.3027H104.003V36.8047ZM113.094 49.2598C111.964 49.2598 110.934 49.082 110.004 48.7266C109.075 48.362 108.277 47.8516 107.612 47.1953C106.955 46.5391 106.445 45.7552 106.08 44.8438C105.716 43.9323 105.534 42.9297 105.534 41.8359C105.534 40.6966 105.711 39.653 106.067 38.7051C106.431 37.748 106.951 36.9277 107.625 36.2441C108.3 35.5514 109.12 35.0137 110.086 34.6309C111.052 34.248 112.146 34.0566 113.368 34.0566C114.498 34.0566 115.519 34.2435 116.43 34.6172C117.341 34.9909 118.121 35.5104 118.768 36.1758C119.415 36.8411 119.912 37.6296 120.258 38.541C120.614 39.4434 120.791 40.4323 120.791 41.5078C120.791 42.6927 120.604 43.7637 120.231 44.7207C119.857 45.6777 119.328 46.4935 118.645 47.168C117.97 47.8333 117.159 48.3483 116.211 48.7129C115.272 49.0775 114.233 49.2598 113.094 49.2598ZM113.244 36.5586C112.579 36.5586 111.982 36.6816 111.453 36.9277C110.925 37.1738 110.478 37.5202 110.114 37.9668C109.749 38.4134 109.466 38.9512 109.266 39.5801C109.075 40.209 108.979 40.9062 108.979 41.6719C108.979 42.4466 109.07 43.1484 109.252 43.7773C109.444 44.3971 109.717 44.9303 110.073 45.377C110.428 45.8145 110.861 46.1562 111.371 46.4023C111.891 46.6393 112.474 46.7578 113.121 46.7578C113.805 46.7578 114.411 46.6439 114.94 46.416C115.468 46.1882 115.91 45.86 116.266 45.4316C116.621 44.9941 116.89 44.4655 117.073 43.8457C117.255 43.2168 117.346 42.5059 117.346 41.7129C117.346 40.9017 117.259 40.1771 117.086 39.5391C116.913 38.901 116.653 38.3633 116.307 37.9258C115.97 37.4792 115.541 37.1419 115.022 36.9141C114.511 36.6771 113.919 36.5586 113.244 36.5586ZM136.472 49H133.191V42.916C132.444 43.2897 131.701 43.5814 130.963 43.791C130.233 44.0007 129.463 44.1055 128.652 44.1055C127.212 44.1055 126.109 43.75 125.344 43.0391C124.587 42.3281 124.209 41.2663 124.209 39.8535V34.3027H127.49V39.4297C127.49 40.2044 127.659 40.7741 127.996 41.1387C128.342 41.4941 128.885 41.6719 129.623 41.6719C130.197 41.6719 130.776 41.5853 131.359 41.4121C131.952 41.2389 132.562 40.9837 133.191 40.6465V34.3027H136.472V49ZM154.068 49H150.157L145.441 42.6016C145.377 42.5195 145.295 42.401 145.195 42.2461C145.094 42.0911 145.008 41.9362 144.935 41.7812H144.88V49H141.585V34.3027H144.88V41.2344H144.935C144.98 41.1432 145.053 41.0202 145.154 40.8652C145.254 40.7103 145.354 40.5645 145.454 40.4277L149.939 34.3027H153.589L148.216 41.3438L154.068 49ZM169.749 49H166.194L164.964 45.582H159.426L158.251 49H154.696L160.397 34.3027H164.089L169.749 49ZM164.212 43.2168L162.585 38.5547C162.503 38.3177 162.425 38.0625 162.352 37.7891C162.279 37.5065 162.234 37.2559 162.215 37.0371H162.147C162.12 37.2467 162.07 37.4883 161.997 37.7617C161.933 38.026 161.855 38.2995 161.764 38.582L160.219 43.2168H164.212Z" fill="white"/>
</svg>
